<?xml version="1.0" standalone="no"?>
<!DOCTYPE svg PUBLIC "-//W3C//DTD SVG 20010904//EN"
 "http://www.w3.org/TR/2001/REC-SVG-20010904/DTD/svg10.dtd">
<svg version="1.0" xmlns="http://www.w3.org/2000/svg"
 width="700.000000pt" height="700.000000pt" viewBox="0 0 700.000000 700.000000"
 preserveAspectRatio="xMidYMid meet">
<metadata>
Created by potrace 1.14, written by Peter Selinger 2001-2017
</metadata>
<g transform="translate(0.000000,700.000000) scale(0.100000,-0.100000)"
fill="#000000" stroke="none">
<path d="M0 4340 l0 -2660 750 0 750 0 0 1340 c0 737 3 1340 8 1340 4 0 326
-484 716 -1075 391 -591 713 -1075 717 -1075 12 0 109 117 109 131 0 11 27 71
86 194 8 17 35 46 59 65 24 19 46 45 50 58 3 13 22 37 43 55 20 17 52 47 71
66 29 30 41 35 93 39 32 3 86 -1 120 -8 43 -8 64 -8 71 -1 6 6 21 11 32 11 12
0 34 13 50 30 15 16 42 32 59 36 17 3 36 10 41 14 6 5 26 10 45 12 45 4 49 24
16 76 -46 73 -44 83 18 137 50 42 60 47 91 42 32 -5 38 -2 76 44 30 36 61 59
115 84 53 25 80 44 98 72 22 31 37 41 88 55 35 10 73 18 86 18 26 0 118 73
127 100 4 13 19 20 53 23 26 3 58 8 72 11 14 3 41 8 61 11 29 4 38 11 43 30 4
14 11 25 16 25 6 0 10 11 10 25 0 16 -6 25 -15 25 -9 0 -15 9 -15 25 0 15 -6
25 -14 25 -7 0 -30 20 -51 45 -20 25 -62 63 -94 84 -63 43 -121 103 -121 127
0 8 -7 17 -15 20 -8 4 -15 14 -15 24 0 21 -13 32 -60 50 -48 18 -70 39 -70 67
0 12 -6 23 -13 23 -15 0 -47 61 -47 91 0 33 -38 96 -61 102 -12 3 -30 2 -40
-4 -34 -18 -64 -10 -101 29 l-36 37 -6 132 c-4 75 -12 143 -19 157 -7 13 -34
40 -60 60 -55 42 -109 49 -127 16 -11 -20 -60 -29 -60 -10 0 6 -7 10 -15 10
-23 0 -28 24 -15 65 10 30 9 40 -4 60 -10 15 -14 34 -10 49 3 13 1 27 -5 30
-16 10 -13 48 5 75 13 17 14 28 6 44 -21 44 -21 67 0 81 18 13 20 22 14 73 -6
55 -5 60 25 96 26 32 36 37 73 37 57 0 110 35 114 75 2 17 8 35 13 41 5 6 2
19 -7 32 -13 19 -13 22 8 36 13 8 36 18 51 22 16 3 33 17 39 29 8 18 6 27 -14
46 -29 29 -149 201 -172 247 l-17 34 54 54 c46 46 59 54 91 54 33 0 48 10 122
77 77 70 84 79 84 114 0 29 5 39 20 44 41 13 205 242 269 377 50 106 127 192
230 260 l74 48 -812 0 -811 0 0 -1367 c-1 -1114 -3 -1365 -13 -1351 -7 9 -362
624 -788 1367 l-774 1351 -817 0 -818 0 0 -2660z"/>
<path d="M4941 6996 c2 -2 162 -95 354 -208 258 -151 490 -276 883 -473 l532
-268 0 -61 c0 -126 -60 -305 -148 -443 -28 -43 -53 -91 -57 -108 -4 -16 -13
-46 -21 -66 -14 -31 -14 -40 0 -79 18 -53 14 -60 -59 -101 -32 -18 -61 -45
-78 -72 -32 -50 -66 -70 -103 -61 -33 9 -30 33 11 87 44 57 46 80 8 71 -32 -8
-84 -63 -108 -114 -10 -19 -39 -53 -66 -75 -40 -33 -48 -45 -45 -68 1 -15 -1
-30 -6 -33 -4 -3 -8 -17 -8 -32 0 -47 -12 -72 -35 -78 -25 -6 -45 -42 -45 -80
0 -20 -31 -96 -45 -112 -2 -2 -26 5 -55 15 l-52 18 -29 -33 c-16 -18 -39 -37
-52 -42 l-22 -9 24 0 c13 -1 36 10 53 24 16 14 38 25 49 25 20 0 59 -33 59
-50 0 -15 70 -81 80 -75 5 3 28 -4 50 -17 l40 -23 15 22 c12 17 22 20 54 16
23 -3 41 -1 45 6 12 19 43 12 67 -14 13 -13 34 -25 45 -25 12 0 47 -13 78 -30
31 -16 73 -32 94 -36 20 -4 44 -13 53 -21 15 -12 17 -11 23 13 7 26 -15 74
-34 74 -5 0 -8 25 -7 55 1 30 5 55 9 55 20 0 69 -84 83 -144 21 -90 13 -103
-73 -108 -47 -3 -67 -9 -74 -21 -5 -9 -22 -24 -39 -32 -16 -9 -27 -20 -24 -25
7 -12 62 8 68 25 8 19 73 38 104 30 l26 -6 -27 -28 c-14 -15 -26 -32 -26 -37
0 -6 -9 -19 -20 -29 -11 -10 -20 -24 -20 -31 0 -25 48 6 53 35 5 22 39 51 60
51 2 0 -1 -26 -6 -57 -5 -32 -10 -92 -11 -133 -1 -61 -6 -83 -27 -120 -16 -27
-28 -66 -31 -97 -7 -69 -20 -83 -77 -83 -33 0 -42 -3 -31 -10 8 -5 30 -10 49
-10 32 0 33 -1 27 -32 -4 -18 -12 -65 -18 -105 -8 -58 -14 -72 -30 -76 -16 -5
-19 -11 -15 -29 5 -17 -3 -39 -26 -74 -30 -45 -36 -49 -72 -49 -52 0 -65 -9
-65 -48 0 -18 -7 -41 -15 -51 -23 -30 -18 -52 19 -83 40 -32 44 -46 25 -90
-11 -27 -19 -33 -44 -33 -16 0 -43 7 -59 15 -33 17 -45 12 -30 -12 14 -22 31
-31 77 -38 45 -7 49 -30 13 -78 -34 -46 -41 -76 -22 -90 15 -11 13 -18 -19
-71 -46 -76 -75 -143 -75 -170 0 -12 -5 -27 -11 -33 -18 -18 -2 -62 26 -75 36
-16 34 -64 -6 -114 -17 -22 -40 -59 -51 -84 -25 -58 -45 -80 -74 -80 -17 0
-32 -14 -56 -49 -19 -31 -42 -52 -57 -56 -27 -7 -111 -91 -111 -111 0 -6 7
-17 15 -24 8 -7 15 -21 15 -31 0 -20 -34 -28 -107 -26 -47 2 -74 -17 -93 -64
-10 -23 -10 -36 -1 -55 6 -14 11 -43 11 -64 0 -47 -25 -65 -76 -57 -32 5 -35
3 -69 -52 -19 -32 -35 -71 -35 -86 0 -38 -36 -85 -66 -85 -13 0 -24 -4 -24
-10 0 -5 -20 -32 -44 -59 -24 -27 -47 -59 -51 -70 -7 -23 -53 -51 -84 -51 -11
0 -33 -8 -49 -17 -26 -15 -29 -21 -25 -57 4 -37 0 -48 -45 -106 -27 -36 -76
-90 -108 -120 -52 -49 -58 -60 -61 -98 -3 -52 -35 -107 -74 -127 -15 -8 -39
-26 -53 -40 -14 -14 -30 -25 -36 -25 -16 0 -12 -31 7 -52 14 -15 14 -24 4 -58
-13 -45 -45 -73 -137 -118 -69 -35 -77 -43 -94 -97 -7 -22 -17 -50 -21 -63
l-9 -24 30 22 c17 12 38 33 48 47 21 30 33 43 106 108 99 88 204 217 212 261
12 66 112 254 171 319 29 33 67 88 84 122 35 69 61 97 101 107 14 3 54 36 90
74 34 38 75 72 90 75 14 4 40 19 57 33 24 20 31 34 31 63 0 20 6 45 13 55 12
17 16 17 51 2 44 -18 58 -12 97 42 19 26 27 50 27 80 1 24 8 55 17 69 15 23
15 26 1 42 -24 27 -10 51 29 51 42 0 67 9 59 21 -3 6 1 21 10 34 13 20 20 23
40 15 30 -11 46 4 46 42 0 21 5 28 19 28 29 0 45 24 30 48 -11 17 -9 25 17 54
16 19 46 41 67 50 39 17 42 21 52 80 4 29 12 39 30 44 16 4 26 15 30 34 3 15
15 36 25 45 13 12 18 26 14 39 -3 15 6 36 29 66 19 25 37 55 41 68 7 19 4 22
-23 22 -21 0 -31 5 -31 15 0 8 9 15 19 15 11 0 27 7 36 16 14 15 14 18 0 33
-21 25 -19 34 14 58 26 20 31 34 57 167 23 121 26 153 18 186 -10 35 -8 44 12
74 l23 34 -29 37 c-17 21 -30 43 -30 50 0 6 20 29 45 52 30 27 54 62 74 109
30 67 30 68 31 31 0 -20 -11 -88 -24 -150 -14 -61 -29 -159 -36 -217 -31 -293
-83 -507 -164 -675 -29 -60 -72 -148 -95 -195 -40 -83 -116 -192 -196 -282
-31 -36 -50 -47 -83 -53 -46 -7 -48 -12 -28 -70 14 -38 13 -41 -8 -65 -13 -14
-31 -47 -40 -73 -20 -54 -48 -84 -123 -133 -28 -18 -54 -42 -58 -53 -3 -11
-29 -34 -58 -52 -29 -18 -85 -54 -126 -81 -41 -27 -88 -52 -103 -55 -20 -4
-33 -15 -42 -37 -12 -29 -177 -216 -197 -224 -5 -2 -27 -43 -49 -90 -23 -48
-49 -96 -59 -107 -11 -11 -40 -64 -65 -117 -33 -70 -64 -116 -106 -162 -34
-35 -60 -73 -60 -84 0 -38 -215 -195 -310 -227 -27 -9 -59 -15 -71 -13 -25 3
-39 28 -16 28 25 0 124 49 100 49 -12 1 -25 5 -28 11 -3 5 -27 16 -53 23 l-47
14 -3 51 c-3 59 20 121 68 183 17 21 42 66 55 100 14 34 29 66 34 73 13 15 0
74 -26 118 -28 49 -82 71 -186 76 l-88 5 -24 37 -24 37 -53 -12 c-29 -7 -65
-16 -80 -19 -15 -3 -29 -14 -32 -24 -8 -24 -45 -45 -59 -34 -7 5 -28 15 -48
21 l-36 12 13 37 c7 20 13 44 14 53 0 22 -37 55 -91 78 -50 22 -68 40 -93 89
-18 36 -56 43 -89 17 -11 -7 -25 -11 -32 -9 -18 7 -65 79 -65 99 0 19 -29 65
-41 65 -5 0 -17 -9 -26 -19 -16 -20 -17 -20 -40 2 -13 12 -40 43 -59 69 -26
35 -44 49 -70 54 -29 5 -36 12 -45 45 -16 53 -127 159 -167 159 -46 0 -89 57
-64 85 5 6 15 42 22 80 7 39 22 90 34 113 l21 44 -37 34 -38 34 -395 0 -395 0
0 -143 c0 -309 56 -556 185 -822 305 -628 932 -1048 1665 -1115 197 -18 1145
-8 1274 14 483 81 864 278 1191 617 267 276 425 587 503 984 14 71 16 374 19
2728 l3 2647 -1031 0 c-568 0 -1030 -2 -1028 -4z"/>
</g>
</svg>
